<?xml version="1.0" encoding="utf-8"?>
<!-- Generator: Adobe Illustrator 21.1.0, SVG Export Plug-In . SVG Version: 6.00 Build 0)  -->
<svg version="1.1"
	 id="Layer_1" xmlns:cc="http://creativecommons.org/ns#" xmlns:dc="http://purl.org/dc/elements/1.1/" xmlns:inkscape="http://www.inkscape.org/namespaces/inkscape" xmlns:rdf="http://www.w3.org/1999/02/22-rdf-syntax-ns#" xmlns:sodipodi="http://sodipodi.sourceforge.net/DTD/sodipodi-0.dtd" xmlns:svg="http://www.w3.org/2000/svg"
	 xmlns="http://www.w3.org/2000/svg" xmlns:xlink="http://www.w3.org/1999/xlink" x="0px" y="0px" viewBox="0 0 17.4 14"
	 style="enable-background:new 0 0 17.4 14;" xml:space="preserve">
<style type="text/css">
	.st0{fill:#FFFFFF;}
</style>
<g transform="translate(0,-1028.3622)">
	<path class="st0" d="M8.5,1028.4c-0.1,0-0.2,0.1-0.3,0.1l-3.9,3.9H0.5c-0.3,0-0.5,0.2-0.5,0.5v5c0,0.3,0.2,0.5,0.5,0.5h3.8l3.9,3.9
		c0.2,0.2,0.5,0.2,0.7,0c0.1-0.1,0.1-0.2,0.1-0.4v-13C9,1028.6,8.8,1028.4,8.5,1028.4C8.5,1028.4,8.5,1028.4,8.5,1028.4z M8,1030.1
		v10.6l-3-3v-4.6L8,1030.1z M11.4,1032l-0.7,0.7l2.6,2.6l-2.6,2.6l0.7,0.7l2.6-2.6l2.6,2.6l0.7-0.7l-2.6-2.6l2.6-2.6l-0.7-0.7
		l-2.6,2.6L11.4,1032z M1,1033.4h3v4H1V1033.4z"/>
</g>
</svg>
