<?xml version="1.0" encoding="utf-8"?>
<!-- Generator: Adobe Illustrator 21.1.0, SVG Export Plug-In . SVG Version: 6.00 Build 0)  -->
<svg version="1.1"
	 id="svg2" xmlns:cc="http://creativecommons.org/ns#" xmlns:dc="http://purl.org/dc/elements/1.1/" xmlns:rdf="http://www.w3.org/1999/02/22-rdf-syntax-ns#" xmlns:svg="http://www.w3.org/2000/svg"
	 xmlns="http://www.w3.org/2000/svg" xmlns:xlink="http://www.w3.org/1999/xlink" x="0px" y="0px" viewBox="0 0 966.7 966.7"
	 style="enable-background:new 0 0 966.7 966.7;" xml:space="preserve">
<style type="text/css">
	.st0{clip-path:url(#SVGID_2_);}
	.st1{clip-path:url(#SVGID_4_);}
	.st2{fill:none;stroke:#000000;stroke-miterlimit:10;}
</style>
<g>
	<g>
		<g id="g10" transform="matrix(1.3333333,0,0,-1.3333333,0,1122.52)">
			<defs>
				<rect id="SVGID_1_" x="-203.4" y="-81.9" width="1122.5" height="1122.5"/>
			</defs>
			<clipPath id="SVGID_2_">
				<use xlink:href="#SVGID_1_"  style="overflow:visible;"/>
			</clipPath>
			<g id="g12" class="st0">
				<g id="g14">
					<g id="g22">
					</g>
					<g id="g20">
						<g id="g74">
							<defs>
								<rect id="SVGID_3_" x="-120.3" y="-3.4" width="965.7" height="965.7"/>
							</defs>
							<clipPath id="SVGID_4_">
								<use xlink:href="#SVGID_3_"  style="overflow:visible;"/>
							</clipPath>
							<g id="g72" class="st1">
								<g id="g30" transform="translate(330.16,400.89)">
									<path id="path28" d="M-63.1,58.4l1,81.8c-59.1,12.7-129.9,64.1-155.6,88.2c-15.5-24.8-32.1-64.2-37.4-102.4h74
										c27.4,0,64.2-5.6,84.4-32.4c12.3-16.3,12.5-32.6,12.5-33.3v-4.5h-173.9c2.7-44.8,24.6-129.4,91.5-190.4
										c4.5,24.9,26.1,54.6,48.8,85.9C-91-11.4-63.1,27-63.1,58.4 M182-175.3l0,0.3c-3.1,30.9-26.7,63.3-51.7,97.6
										C98.6-34,65.9,10.9,65.9,61.2v76.2c0,0.6,0,1.4-10.1,2c-5.6,0.3-13.1,0.5-21.1,0.5c-8.1,0-15.6-0.2-21.1-0.5
										c-10.1-0.6-10.1-1.4-10.1-2L3.3,61.9C3.3,12.4-29-31.8-60.2-74.6c-25.8-35.3-50.1-68.7-52.3-101l0-0.3l0.3-0.1
										c3.2-1.7,6.3-3.4,9.4-5.1c16.2-8.9,31.6-17.3,45.6-22l0.5-0.2l0.1,0.5c11.9,41.3,27.6,61.2,40.3,77.1
										c9.3,11.7,17,21.5,19.7,36.2v-125.7l0.4-0.1c10.2-1.4,20.5-2,30.8-2s20.7,0.7,31,2l0.4,0.1v125.8
										c2.6-14.4,10.2-23.8,19.4-35.1c12.6-15.6,28.3-34.9,40-76.6l0.1-0.5l0.5,0.1c17.4,5.1,35.6,13.7,55.6,26.3L182-175.3z
										 M391.5,122.4c1.9-9.3,3.1-36.6,3-44c-1-49-10.5-95-28.9-140.8c-17.9-44.4-44.5-83.3-81.2-118.9
										c-32.5-31.4-71-57-111.4-73.9c-38.7-17-96.6-28.4-144-28.4c-47.3,0-94.8,9.9-141,29.5l-0.2,0.1
										c-36.7,17.7-66.1,33.6-111.5,76.4l-0.1,0.1c-33.3,33.2-59.4,72-77.6,115.1c-18.8,44.5-28.4,92-28.4,141
										c0,49.4,9,94.7,27.5,138.5c10.7,25.4,22.4,47,35.7,66.1c30.9,45.1,73.2,83.7,122.2,111.3c53.5,30.2,113.4,46.1,173.4,46.1
										c72.3,0,138.5-18.7,196.7-55.7c54.5-34.6,87.8-76.5,102.8-98.5l1.7-2.5l-1.7-2.5c-25.3-37.5-57.1-69.3-94.5-94.5
										c-31.9-21.6-67-37.5-101.7-46.3l1-82.1c0-33.2,27.5-71,54.1-107.5c21.6-29.7,42.2-58,46.7-82.5
										c31.3,30.1,55.1,66.3,70.9,107.8c13.3,35,17.4,64.6,18.6,79.3H155.3v4.5c0,0.7,0.1,16.9,10.8,33.2
										c9.8,15,30.6,32.8,74.3,32.8l70.9,0l79.5-0.1L391.5,122.4z M239.6,283.6c-55.4,55.9-128.1,86.6-205,86.6
										c-41.2,0-83.2-8.9-121.2-25.7c-34-15-64.4-35.9-88.1-60.7C-112.5,226.2-42.1,197,34.6,197c42,0,81.7,8.4,117.9,24.9
										C184.1,236.3,213.4,257.1,239.6,283.6"/>
								</g>
								<g id="g34" transform="translate(558.59,157.99)">
									<path id="path32" d="M-63.1,58.4c5.4,2.9,10.7,6.1,16.1,9.5c-6.9,68.9-116,145-116,236.2v76.2c0,2.7-61.4,2.7-61.4,0
										l-0.2-75.5c0-91.2-111.1-167-115.7-237.6c2.4-1.3,4.8-2.6,7.1-3.9c0,0,0.1,0,0.1-0.1c4.7-2.8,10-5.7,15.6-8.5
										c0.1,0,0.1,0,0.1-0.1c11.3-6,22-11.3,32.1-14.7c23,80.2,60.9,80.2,60.9,124.9V27.9c20.5-2.7,41-2.7,61.7,0V165
										c0-44.7,37.8-43,60.3-123.3c9.5,2.8,19,6.6,28.5,11.2c0.9,0.4,1.8,0.9,2.7,1.3c2.2,1.1,4.3,2.2,6.5,3.4
										C-64.2,57.8-63.7,58.1-63.1,58.4 M-46.5,68l0-0.3l-0.3-0.2c-20-12.6-38.2-21.2-55.6-26.3l-0.5-0.1l-0.1,0.5
										c-11.7,41.7-27.4,61.1-40,76.6c-9.1,11.3-16.7,20.7-19.4,35.1V27.5l-0.4-0.1c-10.3-1.4-20.8-2.1-31-2.1
										c-10.3,0-20.6,0.7-30.8,2l-0.4,0.1v125.7c-2.7-14.7-10.4-24.4-19.7-36.2c-12.7-16-28.4-35.8-40.3-77.1l-0.1-0.5l-0.5,0.2
										c-14,4.7-29.4,13.1-45.6,22c-3.1,1.7-6.3,3.4-9.4,5.1l-0.3,0.2l0,0.3c2.1,32.3,26.5,65.7,52.3,101
										c31.2,42.8,63.5,87,63.5,136.5l0.2,75.5c0,0.6,0,1.4,10.1,2c5.6,0.3,13.1,0.5,21.1,0.5c8.1,0,15.6-0.2,21.1-0.5
										c10.1-0.6,10.1-1.4,10.1-2v-76.2c0-50.3,32.7-95.1,64.3-138.5C-73.2,131.3-49.6,98.9-46.5,68"/>
								</g>
								<g id="g38" transform="translate(558.59,157.99)">
									<path id="path36" d="M-63.1,58.4c5.4,3,10.5,6.2,15.6,9.7C-50.7,98.7-74.2,130.9-99,165c-31.7,43.5-64.5,88.5-64.5,139.1
										v76.1c-1.2,0.8-12.1,1.7-30.2,1.7c-18.1,0-29-0.9-30.2-1.7l-0.2-75.4c0-49.8-32.4-94.2-63.7-137.1
										c-25.6-35.1-49.8-68.2-52-100.2c2-1.3,4.2-2.8,6.6-4.2c-2.4,1.3-4.7,2.6-7.1,3.9c4.7,70.6,115.7,146.3,115.7,237.6
										l0.2,75.5c0,2.7,61.4,2.7,61.4,0v-76.2c0-91.2,109.2-167.3,116-236.2C-52.4,64.5-57.7,61.4-63.1,58.4"/>
								</g>
								<g id="g42" transform="translate(556.9,157.07)">
									<path id="path40" d="M-63.1,58.4c0.6,0.3,1.1,0.6,1.7,0.9C-62,59-62.5,58.7-63.1,58.4"/>
								</g>
								<g id="g46" transform="translate(550.43,153.71)">
									<path id="path44" d="M-63.1,58.4c2.2,1.1,4.3,2.2,6.5,3.4C-58.8,60.6-60.9,59.5-63.1,58.4"/>
								</g>
								<g id="g50" transform="translate(550.43,153.71)">
									<path id="path48" d="M-63.1,58.4c-0.9-0.5-1.8-0.9-2.7-1.3C-64.9,57.6-64,58-63.1,58.4"/>
								</g>
								<g id="g54" transform="translate(547.74,152.4)">
									<path id="path52" d="M-63.1,58.4c-9.5-4.6-19-8.4-28.5-11.2c-22.6,80.3-60.3,78.6-60.3,123.3h0.5
										c0-21.3,8.4-31.7,20.1-46.2c12.6-15.6,28.3-35,40-76.5C-81.1,50.8-71.8,54.3-63.1,58.4"/>
								</g>
								<g id="g58" transform="translate(428.15,687.58)">
									<path id="path56" d="M-63.1,58.4c34.3,0,62.3-27.9,62.3-62.3s-27.9-62.3-62.3-62.3c-34.3,0-62.3,27.9-62.3,62.3
										S-97.4,58.4-63.1,58.4"/>
								</g>
								<g id="g62" transform="translate(458.91,264.53)">
									<path id="path60" d="M-63.1,58.4V-78.6c-20.7-2.7-41.2-2.7-61.7,0V58.5h0.5V-78.2c10-1.3,20.1-2,30.2-2s20.3,0.7,30.5,2
										V58.4H-63.1z"/>
								</g>
								<g id="g66" transform="translate(396.74,264.54)">
									<path id="path64" d="M-63.1,58.4h0.5c0-44.7-37.9-44.7-61-124.9c-10,3.4-20.8,8.7-32.1,14.7c10.8-5.4,22.4-10.5,31.8-14
										c11.9,41.2,27.6,61,40.3,77C-71.7,26.2-63.1,37-63.1,58.4"/>
								</g>
								<g id="g70" transform="translate(304.08,154.39)">
									<path id="path68" d="M-63.1,58.4c-5.6,2.8-10.9,5.7-15.6,8.5C-73.4,64-68.2,61.2-63.1,58.4"/>
								</g>
							</g>
						</g>
					</g>
					<g id="g76" transform="translate(422.29,58.82)">
						<path id="path78" class="st2" d="M-63.1,58.4c-47.3,0-94.8,9.9-141,29.5l-0.2,0.1c-36.7,17.7-66.1,33.6-111.5,76.4l-0.1,0.1
							c-33.3,33.2-59.4,72-77.6,115.1c-18.8,44.5-28.4,92-28.4,141c0,49.4,9,94.7,27.5,138.5c10.7,25.4,22.4,47,35.7,66.1
							c30.9,45.1,73.2,83.7,122.2,111.3c53.5,30.2,113.4,46.2,173.4,46.2c72.3,0,138.5-18.7,196.7-55.7
							c54.5-34.6,87.8-76.5,102.8-98.5l1.7-2.5l-1.7-2.5c-25.3-37.5-57.1-69.3-94.5-94.5c-31.9-21.6-67-37.5-101.7-46.3l1-82.1
							c0-33.2,27.5-71,54.1-107.5c21.6-29.8,42.2-58,46.7-82.5c31.2,30.1,55.1,66.3,70.9,107.8c13.3,35,17.4,64.6,18.6,79.3H63.2
							v4.5c0,0.7,0.1,16.9,10.8,33.2c9.8,15,30.6,32.8,74.3,32.8l70.9,0l79.5-0.1l0.7-3.6c1.9-9.3,3.1-36.6,3-44
							c-1-49-10.5-95-28.9-140.8c-17.9-44.4-44.4-83.3-81.2-118.9c-32.5-31.4-71-57-111.4-73.9C42.2,69.9-15.7,58.4-63.1,58.4z"/>
					</g>
					<g id="g80" transform="translate(635.87,622.96)">
						<path id="path82" class="st2" d="M-63.1,58.4c-1,1-2,2-3,3c-55.4,55.9-128.1,86.6-205,86.6c-41.2,0-83.1-8.9-121.2-25.7
							c-34-15-64.4-35.9-88.1-60.7c-1-1-2-2.1-3-3.2"/>
					</g>
					<g id="g84" transform="translate(215.3,629.23)">
						<path id="path86" class="st2" d="M-63.1,58.4c1.1-1,2.1-2,3.2-3C2.4-2.1,72.8-31.3,149.5-31.3c42,0,81.7,8.4,117.9,24.9
							C299,8,328.3,28.7,354.5,55.2c1,1,2,2,3,3"/>
					</g>
					<g id="g88" transform="translate(135.05,398.31)">
						<path id="path90" class="st2" d="M-63.1,58.4C-60.4,13.6-38.5-71,28.3-131.9C32.9-107,54.4-77.3,77.1-46
							C104.1-8.9,132,29.6,132,61l0.9,81.8C73.9,155.5,3.1,206.9-22.7,231c-15.5-24.8-32.1-64.2-37.4-102.4h74
							c27.4,0,64.2-5.6,84.4-32.4c12.3-16.3,12.5-32.6,12.5-33.3v-4.5H-63.1z"/>
					</g>
				</g>
			</g>
		</g>
	</g>
</g>
</svg>
