<?xml version="1.0" encoding="utf-8"?>
<!-- Generator: Adobe Illustrator 21.1.0, SVG Export Plug-In . SVG Version: 6.00 Build 0)  -->
<svg version="1.1" id="Layer_1" xmlns="http://www.w3.org/2000/svg" xmlns:xlink="http://www.w3.org/1999/xlink" x="0px" y="0px"
	 viewBox="0 0 59.8 71" style="enable-background:new 0 0 59.8 71;" xml:space="preserve">
<style type="text/css">
	.st0{display:none;stroke:#9C896F;stroke-width:2.6065;stroke-miterlimit:10;}
	.st1{fill:#FFFFFF;}
	.st2{fill:none;stroke:#FFFFFF;stroke-miterlimit:10;}
</style>
<g id="Layer_3">
	<rect x="-56.3" y="-62.3" class="st0" width="304.5" height="215.5"/>
</g>
<path class="st1" d="M58.5,55.3c-1.1,2.5-2.3,4.8-3.8,6.9c-2,2.9-3.6,4.8-4.9,5.9c-2,1.8-4.1,2.7-6.3,2.8c-1.6,0-3.6-0.5-5.8-1.4
	c-2.3-0.9-4.4-1.4-6.3-1.4c-2,0-4.2,0.5-6.5,1.4s-4.2,1.4-5.6,1.5c-2.2,0.1-4.3-0.9-6.5-2.9c-1.4-1.2-3.1-3.2-5.1-6.2
	c-2.2-3.1-4-6.7-5.4-10.8C0.8,46.7,0,42.4,0,38.2c0-4.8,1-8.9,3.1-12.3c1.6-2.8,3.8-4.9,6.5-6.5s5.6-2.4,8.7-2.5
	c1.7,0,4,0.5,6.8,1.6c2.8,1,4.6,1.6,5.4,1.6c0.6,0,2.6-0.6,5.9-1.9c3.2-1.1,5.9-1.6,8.1-1.4c6,0.5,10.5,2.8,13.4,7.1
	c-5.3,3.2-8,7.8-7.9,13.6c0,4.5,1.7,8.3,4.9,11.3c1.5,1.4,3.1,2.5,4.9,3.2C59.4,53.1,59,54.2,58.5,55.3L58.5,55.3z M44.8,1.4
	c0,3.5-1.3,6.9-3.9,9.9c-3.1,3.6-6.9,5.8-11,5.4c-0.1-0.4-0.1-0.9-0.1-1.3c0-3.4,1.5-7.1,4.1-10c1.3-1.5,3-2.8,5-3.8
	s3.9-1.5,5.7-1.6C44.8,0.4,44.8,0.9,44.8,1.4L44.8,1.4z"/>
<path class="st2" d="M90.5,71.7"/>
<path class="st2" d="M90.5,5.2"/>
</svg>
