<?xml version="1.0" encoding="utf-8"?>
<!-- Generator: Adobe Illustrator 21.1.0, SVG Export Plug-In . SVG Version: 6.00 Build 0)  -->
<svg version="1.1" id="Layer_1" xmlns="http://www.w3.org/2000/svg" xmlns:xlink="http://www.w3.org/1999/xlink" x="0px" y="0px"
	 viewBox="0 0 230.9 115.2" style="enable-background:new 0 0 230.9 115.2;" xml:space="preserve">
<style type="text/css">
	.st0{stroke:#9C896F;stroke-width:2.6065;stroke-miterlimit:10;}
	.st1{fill:#FFFFFF;}
	.st2{fill:none;stroke:#FFFFFF;stroke-miterlimit:10;}
	.st3{fill:#6EBE44;stroke:#FFFFFF;stroke-miterlimit:10;}
</style>
<g id="Layer_3">
	<rect x="-31.4" y="-43.2" class="st0" width="304.5" height="215.5"/>
</g>
<g>
	<path class="st1" d="M162.4,88.5l29.4-16.6l-6.3-7L162.4,88.5z M151.7,27.4c-0.3,0.6-0.5,1.3-0.5,2.1v58.1c0,1.1,0.4,2,1,2.7
		l29.3-29.9L151.7,27.4z M210.6,55.6l-10.3-5.8l-10.5,10.7l7.5,8.3l13.2-7.5c1.2-0.6,1.9-1.7,2-2.9
		C212.4,57.3,211.8,56.2,210.6,55.6z M194.8,46.7l-35.4-20L185.7,56L194.8,46.7z"/>
</g>
<path class="st1" d="M83.4,74.4c-1.1,2.5-2.3,4.8-3.8,6.9c-2,2.9-3.6,4.8-4.9,5.9c-2,1.8-4.1,2.7-6.3,2.8c-1.6,0-3.6-0.5-5.8-1.4
	c-2.3-0.9-4.4-1.4-6.3-1.4c-2,0-4.2,0.5-6.5,1.4c-2.3,0.9-4.2,1.4-5.6,1.5c-2.2,0.1-4.3-0.9-6.5-2.9c-1.4-1.2-3.1-3.2-5.1-6.2
	c-2.2-3.1-4-6.7-5.4-10.8c-1.5-4.4-2.3-8.7-2.3-12.9c0-4.8,1-8.9,3.1-12.3c1.6-2.8,3.8-4.9,6.5-6.5s5.6-2.4,8.7-2.5
	c1.7,0,4,0.5,6.8,1.6c2.8,1,4.6,1.6,5.4,1.6c0.6,0,2.6-0.6,5.9-1.9c3.2-1.1,5.9-1.6,8.1-1.4c6,0.5,10.5,2.8,13.4,7.1
	c-5.3,3.2-8,7.8-7.9,13.6c0,4.5,1.7,8.3,4.9,11.3c1.5,1.4,3.1,2.5,4.9,3.2C84.3,72.2,83.9,73.3,83.4,74.4L83.4,74.4z M69.7,20.5
	c0,3.5-1.3,6.9-3.9,9.9c-3.1,3.6-6.9,5.8-11,5.4c-0.1-0.4-0.1-0.9-0.1-1.3c0-3.4,1.5-7.1,4.1-10c1.3-1.5,3-2.8,5-3.8
	c2-1,3.9-1.5,5.7-1.6C69.7,19.5,69.7,20,69.7,20.5L69.7,20.5z"/>
<g id="Layer_2">
	<path class="st2" d="M204.6,113.9H26.3c-13.7,0-25-11.2-25-25V26.3c0-13.7,11.2-25,25-25h178.3c13.8,0,25,11.2,25,25v62.5
		C229.6,102.6,218.3,113.9,204.6,113.9z"/>
</g>
<line class="st3" x1="115.4" y1="24.3" x2="115.4" y2="90.8"/>
</svg>
