<?xml version="1.0" encoding="utf-8"?>
<!-- Generator: Adobe Illustrator 21.1.0, SVG Export Plug-In . SVG Version: 6.00 Build 0)  -->
<svg version="1.1" id="Layer_1" xmlns="http://www.w3.org/2000/svg" xmlns:xlink="http://www.w3.org/1999/xlink" x="0px" y="0px"
	 viewBox="0 0 61.3 63.6" style="enable-background:new 0 0 61.3 63.6;" xml:space="preserve">
<style type="text/css">
	.st0{display:none;stroke:#9C896F;stroke-width:2.6065;stroke-miterlimit:10;}
	.st1{fill:#FFFFFF;}
</style>
<g id="Layer_3">
	<rect x="-182.6" y="-69.9" class="st0" width="304.5" height="215.5"/>
</g>
<g>
	<path class="st1" d="M11.2,61.8l29.4-16.6l-6.3-7L11.2,61.8z M0.5,0.7C0.2,1.3,0,2,0,2.8v58.1c0,1.1,0.4,2,1,2.7l29.3-29.9L0.5,0.7
		z M59.4,28.9l-10.3-5.8L38.6,33.8l7.5,8.3l13.2-7.5c1.2-0.6,1.9-1.7,2-2.9C61.2,30.6,60.6,29.5,59.4,28.9z M43.6,20L8.2,0
		l26.3,29.3L43.6,20z"/>
</g>
</svg>
