<?xml version="1.0" encoding="utf-8"?>
<!-- Generator: Adobe Illustrator 21.1.0, SVG Export Plug-In . SVG Version: 6.00 Build 0)  -->
<svg version="1.1" id="Layer_1" xmlns="http://www.w3.org/2000/svg" xmlns:xlink="http://www.w3.org/1999/xlink" x="0px" y="0px"
	 viewBox="0 0 100 82.2" style="enable-background:new 0 0 100 82.2;" xml:space="preserve">
<style type="text/css">
	.st0{fill:#FFFFFF;}
</style>
<g>
	<path class="st0" d="M36.2,7.5c-1.4-0.6-3-0.3-4.1,0.8L12.7,27.4c-0.3,0.3-0.6,0.7-0.8,1.2H1.4C0.6,28.6,0,29.2,0,30v22.3
		c0,0.8,0.6,1.4,1.4,1.4h10.5c0.2,0.4,0.4,0.8,0.8,1.2L32.1,74c0.7,0.7,1.7,1.1,2.7,1.1c0.5,0,0.9-0.1,1.4-0.2
		c1.4-0.6,2.3-1.9,2.3-3.4V10.9C38.5,9.4,37.6,8.1,36.2,7.5"/>
	<path class="st0" d="M55.7,28.4c-2-1.9-5.5-1.9-7.5,0c-1,1-1.6,2.3-1.6,3.7c0,1.4,0.6,2.7,1.6,3.6c1.4,1.4,2.2,3.3,2.2,5.3
		s-0.8,3.9-2.2,5.4c-2.1,2-2.1,5.3,0,7.3c1,1,2.3,1.5,3.7,1.5s2.7-0.5,3.7-1.5C59.1,50.3,61,45.8,61,41
		C61.1,36.3,59.2,31.8,55.7,28.4"/>
	<path class="st0" d="M69.5,14.9c-2-2-5.5-2-7.5,0c-2.1,2-2.1,5.3,0,7.3c5.1,5,7.9,11.7,7.9,18.8S67.1,54.8,62,59.8
		c-2.1,2.1-2.1,5.3,0,7.3c1,1,2.3,1.5,3.7,1.5c1.4,0,2.7-0.6,3.7-1.5c7.1-7,11.1-16.3,11.1-26.2C80.5,31.2,76.6,21.9,69.5,14.9"/>
	<path class="st0" d="M75.8,1.5c-2.1,2-2.1,5.3,0,7.3c8.8,8.6,13.6,20.1,13.6,32.2c0,12.2-4.8,23.7-13.6,32.3c-1,1-1.6,2.3-1.6,3.7
		c0,1.4,0.5,2.7,1.6,3.6c1,1,2.3,1.5,3.7,1.5c1.4,0,2.7-0.5,3.7-1.5C94,70.1,100,56,100,41c0-14.9-6-29-16.8-39.6
		C81.3-0.5,77.7-0.5,75.8,1.5"/>
</g>
</svg>
